<svg xmlns="http://www.w3.org/2000/svg" xmlns:xlink="http://www.w3.org/1999/xlink"><polygon points="0,200 0,100 1,99 2,98 3,99 4,100 5,101 6,102 7,101 8,102 9,101 10,102 11,103 12,104 13,105 14,104 15,105 16,106 17,107 18,108 19,107 20,108 21,109 22,110 23,111 24,110 25,109 26,110 27,111 28,112 29,113 30,112 31,113 32,112 33,113 34,112 35,111 36,110 37,109 38,110 39,109 40,110 41,111 42,112 43,113 44,112 45,113 46,112 47,111 48,112 49,113 50,114 51,113 52,112 53,111 54,112 55,111 56,110 57,111 58,112 59,111 60,112 61,111 62,112 63,111 64,112 65,113 66,114 67,115 68,116 69,115 70,114 71,113 72,114 73,113 74,112 75,111 76,112 77,113 78,112 79,113 80,114 81,115 82,116 83,115 84,116 85,115 86,116 87,117 88,116 89,115 90,114 91,113 92,114 93,113 94,112 95,113 96,114 97,115 98,114 99,113 100,114 101,113 102,114 103,115 104,114 105,113 106,114 107,113 108,114 109,115 110,116 111,117 112,118 113,117 114,118 115,119 116,118 117,117 118,118 119,119 120,118 121,117 122,118 123,117 124,118 125,117 126,118 127,119 128,120 129,121 130,122 131,123 132,122 133,121 134,120 135,121 136,120 137,121 138,120 139,121 140,120 141,119 142,120 143,119 144,118 145,117 146,118 147,117 148,116 149,117 150,118 151,117 152,116 153,115 154,114 155,113 156,114 157,113 158,114 159,113 160,112 161,111 162,110 163,111 164,112 165,111 166,112 167,113 168,112 169,113 170,112 171,111 172,110 173,109 174,108 175,107 176,108 177,107 178,106 179,107 180,106 181,105 182,104 183,103 184,102 185,101 186,100 187,99 188,100 189,101 190,102 191,103 192,102 193,103 194,104 195,103 196,102 197,101 198,102 199,101 200,102 201,101 202,102 203,101 204,100 205,99 206,98 207,99 208,100 209,101 210,102 211,103 212,102 213,103 214,104 215,105 216,104 217,103 218,104 219,105 220,106 221,105 222,104 223,105 224,104 225,103 226,104 227,103 228,104 229,105 230,106 231,105 232,106 233,105 234,106 235,107 236,108 237,107 238,106 239,105 240,106 241,105 242,104 243,105 244,106 245,107 246,108 247,107 248,106 249,105 250,104 251,105 252,104 253,105 254,104 255,103 256,102 257,101 258,102 259,101 260,102 261,101 262,100 263,101 264,100 265,99 266,100 267,101 268,102 269,103 270,104 271,105 272,106 273,105 274,106 275,107 276,106 277,107 278,108 279,107 280,106 281,107 282,106 283,107 284,106 285,105 286,106 287,105 288,106 289,105 290,106 291,105 292,104 293,105 294,104 295,105 296,106 297,105 298,104 299,105 300,106 301,107 302,108 303,107 304,106 305,107 306,108 307,109 308,108 309,107 310,106 311,107 312,106 313,107 314,108 315,107 316,106 317,105 318,106 319,107 320,108 321,107 322,108 323,107 324,108 325,107 326,108 327,109 328,110 329,111 330,110 331,111 332,110 333,109 334,110 335,111 336,112 337,111 338,110 339,111 340,112 341,111 342,112 343,113 344,112 345,113 346,114 347,113 348,112 349,113 350,112 351,113 352,112 353,111 354,112 355,111 356,112 357,113 358,114 359,115 360,116 361,115 362,116 363,117 364,116 365,115 366,114 367,115 368,116 369,115 370,116 371,115 372,116 373,117 374,116 375,115 376,116 377,117 378,118 379,119 380,118 381,117 382,116 383,115 384,116 385,117 386,118 387,117 388,116 389,117 390,116 391,115 392,114 393,113 394,114 395,113 396,112 397,111 398,112 399,113 400,200 " style="fill:rgb(62,85,201);stroke:rgb(0,0,101)"></polygon><polygon points="0,200 0,100 1,99 2,98 3,97 4,96 5,95 6,94 7,93 8,92 9,91 10,92 11,91 12,90 13,91 14,92 15,93 16,92 17,93 18,94 19,95 20,94 21,93 22,94 23,95 24,94 25,93 26,92 27,91 28,90 29,89 30,90 31,91 32,90 33,91 34,92 35,93 36,94 37,95 38,94 39,93 40,92 41,91 42,90 43,89 44,88 45,89 46,88 47,89 48,88 49,87 50,88 51,87 52,88 53,89 54,88 55,89 56,90 57,89 58,88 59,87 60,88 61,89 62,90 63,89 64,90 65,91 66,90 67,91 68,90 69,89 70,88 71,89 72,88 73,89 74,90 75,89 76,88 77,89 78,88 79,89 80,88 81,87 82,86 83,85 84,84 85,83 86,82 87,83 88,84 89,83 90,84 91,85 92,84 93,83 94,82 95,81 96,82 97,83 98,84 99,83 100,82 101,81 102,82 103,81 104,82 105,81 106,80 107,79 108,80 109,81 110,82 111,83 112,84 113,83 114,82 115,81 116,82 117,83 118,84 119,85 120,84 121,83 122,84 123,85 124,86 125,87 126,86 127,85 128,84 129,83 130,84 131,85 132,86 133,87 134,88 135,87 136,86 137,87 138,88 139,89 140,88 141,87 142,86 143,87 144,88 145,89 146,90 147,91 148,90 149,91 150,90 151,89 152,88 153,89 154,88 155,89 156,88 157,89 158,88 159,89 160,88 161,87 162,86 163,87 164,86 165,85 166,86 167,87 168,88 169,89 170,88 171,87 172,86 173,85 174,84 175,83 176,84 177,83 178,82 179,81 180,80 181,81 182,82 183,81 184,80 185,81 186,82 187,81 188,82 189,81 190,82 191,83 192,82 193,81 194,82 195,81 196,80 197,81 198,82 199,83 200,84 201,83 202,82 203,81 204,80 205,81 206,82 207,81 208,82 209,83 210,82 211,81 212,82 213,83 214,82 215,81 216,82 217,81 218,80 219,79 220,80 221,79 222,80 223,81 224,82 225,81 226,80 227,79 228,78 229,77 230,76 231,77 232,76 233,77 234,78 235,79 236,78 237,79 238,78 239,79 240,80 241,79 242,78 243,77 244,76 245,77 246,78 247,77 248,78 249,77 250,76 251,77 252,76 253,75 254,76 255,75 256,76 257,77 258,76 259,77 260,78 261,79 262,78 263,79 264,80 265,79 266,80 267,81 268,82 269,81 270,82 271,83 272,84 273,83 274,84 275,85 276,84 277,85 278,84 279,85 280,84 281,85 282,84 283,85 284,84 285,83 286,84 287,85 288,84 289,83 290,84 291,83 292,84 293,83 294,82 295,81 296,80 297,81 298,80 299,81 300,80 301,81 302,80 303,79 304,78 305,77 306,78 307,79 308,80 309,81 310,80 311,79 312,80 313,79 314,78 315,79 316,80 317,81 318,80 319,81 320,82 321,81 322,80 323,79 324,80 325,81 326,80 327,79 328,80 329,81 330,82 331,83 332,84 333,85 334,84 335,83 336,84 337,83 338,82 339,83 340,82 341,83 342,84 343,83 344,84 345,83 346,82 347,83 348,84 349,83 350,84 351,85 352,84 353,83 354,84 355,83 356,82 357,83 358,84 359,85 360,86 361,87 362,88 363,89 364,88 365,87 366,88 367,89 368,88 369,89 370,88 371,89 372,88 373,87 374,86 375,87 376,86 377,87 378,88 379,89 380,88 381,87 382,86 383,87 384,88 385,89 386,88 387,89 388,88 389,87 390,88 391,87 392,86 393,87 394,86 395,85 396,84 397,85 398,84 399,83 400,200 " style="fill:rgb(20,190,22);stroke:rgb(0,90,0)"></polygon><polygon points="0,200 0,100 1,99 2,100 3,99 4,98 5,99 6,98 7,97 8,96 9,95 10,96 11,95 12,94 13,95 14,96 15,97 16,98 17,99 18,98 19,99 20,100 21,99 22,100 23,99 24,100 25,99 26,100 27,101 28,100 29,99 30,98 31,97 32,98 33,97 34,98 35,97 36,98 37,97 38,96 39,95 40,96 41,97 42,96 43,97 44,98 45,99 46,100 47,101 48,102 49,103 50,104 51,105 52,104 53,105 54,104 55,105 56,106 57,105 58,104 59,105 60,104 61,103 62,102 63,101 64,100 65,99 66,100 67,101 68,100 69,99 70,98 71,99 72,100 73,101 74,102 75,101 76,102 77,101 78,102 79,101 80,102 81,103 82,104 83,105 84,106 85,105 86,106 87,107 88,108 89,107 90,106 91,105 92,104 93,103 94,102 95,103 96,104 97,105 98,106 99,107 100,108 101,109 102,110 103,109 104,110 105,109 106,110 107,109 108,110 109,111 110,112 111,111 112,112 113,113 114,112 115,111 116,112 117,113 118,114 119,113 120,112 121,111 122,110 123,109 124,108 125,107 126,106 127,107 128,108 129,107 130,106 131,107 132,106 133,105 134,106 135,105 136,106 137,107 138,108 139,107 140,108 141,109 142,110 143,111 144,112 145,113 146,112 147,113 148,112 149,111 150,110 151,111 152,112 153,113 154,114 155,115 156,114 157,113 158,112 159,111 160,110 161,109 162,110 163,111 164,110 165,111 166,112 167,113 168,114 169,115 170,116 171,115 172,116 173,117 174,116 175,117 176,118 177,117 178,116 179,117 180,116 181,115 182,116 183,117 184,116 185,117 186,116 187,117 188,118 189,117 190,118 191,119 192,118 193,117 194,116 195,115 196,116 197,115 198,114 199,113 200,114 201,115 202,116 203,117 204,116 205,115 206,116 207,117 208,116 209,115 210,116 211,117 212,116 213,115 214,114 215,113 216,114 217,113 218,114 219,113 220,112 221,111 222,110 223,111 224,112 225,111 226,112 227,113 228,112 229,111 230,110 231,109 232,108 233,109 234,108 235,107 236,106 237,105 238,106 239,105 240,104 241,103 242,102 243,103 244,104 245,103 246,104 247,105 248,106 249,105 250,106 251,107 252,108 253,109 254,108 255,107 256,108 257,109 258,110 259,111 260,110 261,109 262,108 263,109 264,108 265,107 266,106 267,105 268,104 269,103 270,102 271,101 272,100 273,101 274,102 275,101 276,102 277,103 278,102 279,101 280,102 281,101 282,100 283,99 284,98 285,97 286,96 287,95 288,94 289,95 290,94 291,93 292,92 293,93 294,94 295,93 296,94 297,95 298,96 299,97 300,98 301,97 302,96 303,95 304,96 305,95 306,96 307,95 308,94 309,93 310,92 311,93 312,92 313,93 314,92 315,93 316,94 317,93 318,94 319,95 320,96 321,97 322,96 323,97 324,98 325,97 326,98 327,99 328,98 329,97 330,98 331,97 332,98 333,99 334,98 335,97 336,98 337,99 338,100 339,99 340,98 341,99 342,98 343,99 344,98 345,99 346,98 347,97 348,96 349,97 350,98 351,99 352,98 353,97 354,98 355,97 356,96 357,95 358,94 359,95 360,96 361,97 362,96 363,97 364,98 365,97 366,96 367,97 368,96 369,95 370,94 371,95 372,96 373,95 374,94 375,93 376,94 377,93 378,94 379,93 380,94 381,95 382,96 383,97 384,96 385,97 386,98 387,99 388,98 389,99 390,98 391,97 392,96 393,95 394,96 395,95 396,94 397,93 398,94 399,95 400,200 " style="fill:rgb(203,81,228);stroke:rgb(103,0,128)"></polygon><polygon points="0,200 0,100 1,101 2,100 3,99 4,98 5,97 6,98 7,97 8,98 9,99 10,100 11,101 12,102 13,101 14,100 15,99 16,100 17,101 18,102 19,101 20,102 21,103 22,102 23,103 24,102 25,101 26,100 27,101 28,102 29,101 30,102 31,101 32,102 33,101 34,100 35,101 36,102 37,101 38,100 39,99 40,98 41,97 42,98 43,97 44,98 45,99 46,100 47,101 48,100 49,99 50,98 51,97 52,98 53,99 54,100 55,99 56,100 57,101 58,102 59,101 60,100 61,101 62,102 63,103 64,102 65,101 66,102 67,101 68,102 69,101 70,100 71,99 72,100 73,101 74,102 75,101 76,100 77,99 78,100 79,99 80,98 81,99 82,98 83,97 84,98 85,99 86,100 87,99 88,100 89,99 90,98 91,97 92,96 93,97 94,96 95,97 96,98 97,97 98,98 99,97 100,98 101,99 102,98 103,99 104,98 105,97 106,96 107,95 108,96 109,95 110,96 111,95 112,94 113,95 114,94 115,95 116,96 117,95 118,96 119,95 120,96 121,97 122,98 123,99 124,100 125,101 126,102 127,101 128,102 129,103 130,102 131,101 132,102 133,101 134,100 135,99 136,100 137,101 138,100 139,99 140,100 141,101 142,100 143,99 144,98 145,97 146,96 147,95 148,94 149,93 150,94 151,93 152,94 153,93 154,92 155,91 156,90 157,91 158,92 159,91 160,90 161,91 162,90 163,91 164,92 165,93 166,92 167,91 168,92 169,91 170,90 171,91 172,92 173,91 174,90 175,89 176,88 177,89 178,88 179,87 180,88 181,89 182,88 183,89 184,90 185,89 186,88 187,87 188,88 189,89 190,88 191,87 192,88 193,87 194,86 195,87 196,88 197,89 198,90 199,89 200,88 201,89 202,90 203,91 204,90 205,91 206,90 207,91 208,90 209,91 210,90 211,91 212,90 213,89 214,88 215,89 216,88 217,89 218,90 219,89 220,88 221,89 222,88 223,87 224,88 225,87 226,86 227,87 228,88 229,89 230,90 231,91 232,92 233,93 234,92 235,91 236,90 237,89 238,90 239,91 240,90 241,89 242,90 243,89 244,90 245,91 246,92 247,93 248,94 249,93 250,94 251,93 252,92 253,91 254,92 255,91 256,92 257,93 258,94 259,93 260,92 261,91 262,90 263,89 264,88 265,89 266,88 267,89 268,88 269,87 270,88 271,89 272,88 273,87 274,86 275,87 276,88 277,87 278,88 279,87 280,88 281,89 282,88 283,89 284,90 285,89 286,90 287,91 288,90 289,91 290,90 291,89 292,88 293,87 294,88 295,87 296,88 297,87 298,86 299,85 300,86 301,85 302,84 303,83 304,84 305,85 306,86 307,87 308,88 309,89 310,90 311,89 312,88 313,87 314,86 315,85 316,86 317,85 318,84 319,85 320,86 321,87 322,86 323,87 324,88 325,89 326,88 327,87 328,88 329,89 330,90 331,89 332,88 333,89 334,88 335,89 336,90 337,91 338,92 339,91 340,90 341,91 342,92 343,93 344,94 345,93 346,94 347,93 348,94 349,95 350,96 351,97 352,96 353,97 354,96 355,95 356,94 357,93 358,92 359,91 360,92 361,91 362,92 363,91 364,92 365,93 366,92 367,93 368,92 369,93 370,92 371,93 372,92 373,91 374,90 375,91 376,90 377,89 378,90 379,89 380,90 381,91 382,90 383,89 384,88 385,87 386,88 387,89 388,88 389,89 390,90 391,91 392,90 393,91 394,90 395,89 396,90 397,91 398,92 399,93 400,200 " style="fill:rgb(193,14,83);stroke:rgb(93,0,0)"></polygon><polygon points="0,200 0,100 1,101 2,100 3,101 4,100 5,101 6,102 7,103 8,104 9,105 10,104 11,103 12,104 13,105 14,104 15,105 16,104 17,103 18,102 19,103 20,102 21,101 22,100 23,99 24,100 25,101 26,102 27,101 28,100 29,99 30,98 31,99 32,98 33,97 34,98 35,97 36,96 37,97 38,98 39,97 40,98 41,97 42,96 43,95 44,96 45,97 46,96 47,97 48,98 49,97 50,98 51,99 52,100 53,101 54,102 55,103 56,102 57,103 58,102 59,101 60,100 61,101 62,100 63,101 64,102 65,101 66,100 67,101 68,102 69,101 70,102 71,101 72,102 73,103 74,102 75,101 76,102 77,101 78,100 79,99 80,98 81,97 82,96 83,97 84,96 85,95 86,94 87,95 88,94 89,93 90,94 91,95 92,94 93,95 94,96 95,95 96,96 97,95 98,94 99,95 100,94 101,93 102,94 103,95 104,96 105,97 106,96 107,97 108,98 109,99 110,98 111,99 112,98 113,97 114,96 115,95 116,96 117,95 118,96 119,95 120,96 121,95 122,94 123,93 124,92 125,91 126,92 127,93 128,92 129,93 130,92 131,93 132,92 133,93 134,94 135,93 136,92 137,91 138,90 139,89 140,90 141,89 142,88 143,89 144,88 145,87 146,86 147,87 148,88 149,87 150,86 151,87 152,88 153,87 154,88 155,87 156,86 157,87 158,86 159,85 160,86 161,87 162,88 163,89 164,90 165,89 166,88 167,89 168,90 169,91 170,90 171,89 172,88 173,87 174,88 175,87 176,86 177,85 178,86 179,85 180,84 181,83 182,82 183,81 184,80 185,79 186,80 187,81 188,82 189,83 190,82 191,83 192,84 193,83 194,84 195,85 196,84 197,85 198,86 199,87 200,86 201,87 202,88 203,89 204,90 205,89 206,88 207,87 208,86 209,85 210,86 211,87 212,86 213,87 214,86 215,87 216,86 217,85 218,86 219,87 220,86 221,85 222,84 223,85 224,86 225,85 226,86 227,85 228,84 229,85 230,86 231,85 232,84 233,85 234,84 235,83 236,82 237,81 238,80 239,81 240,82 241,83 242,84 243,83 244,82 245,81 246,82 247,81 248,80 249,79 250,80 251,81 252,82 253,83 254,82 255,81 256,80 257,81 258,82 259,81 260,80 261,79 262,78 263,77 264,76 265,75 266,74 267,73 268,74 269,75 270,74 271,73 272,74 273,75 274,76 275,75 276,74 277,73 278,72 279,71 280,70 281,71 282,72 283,73 284,72 285,71 286,72 287,71 288,70 289,69 290,70 291,69 292,70 293,71 294,72 295,71 296,72 297,71 298,72 299,73 300,74 301,75 302,76 303,75 304,74 305,73 306,72 307,73 308,74 309,73 310,72 311,71 312,72 313,73 314,74 315,73 316,74 317,73 318,72 319,73 320,72 321,71 322,70 323,69 324,70 325,69 326,68 327,69 328,70 329,69 330,70 331,69 332,68 333,69 334,68 335,67 336,66 337,67 338,66 339,67 340,66 341,67 342,66 343,65 344,66 345,67 346,68 347,69 348,70 349,69 350,70 351,69 352,68 353,69 354,70 355,69 356,70 357,71 358,72 359,73 360,74 361,75 362,74 363,73 364,72 365,71 366,72 367,73 368,72 369,71 370,72 371,71 372,72 373,71 374,72 375,73 376,74 377,73 378,74 379,75 380,76 381,75 382,76 383,75 384,76 385,75 386,74 387,73 388,72 389,73 390,74 391,73 392,74 393,75 394,74 395,73 396,72 397,73 398,74 399,75 400,200 " style="fill:rgb(166,69,54);stroke:rgb(66,0,0)"></polygon><polygon points="0,200 0,100 1,99 2,98 3,97 4,98 5,99 6,100 7,101 8,102 9,101 10,100 11,101 12,102 13,103 14,104 15,103 16,102 17,101 18,102 19,101 20,102 21,103 22,104 23,105 24,104 25,103 26,104 27,105 28,106 29,107 30,108 31,107 32,108 33,109 34,108 35,107 36,108 37,107 38,108 39,107 40,106 41,107 42,106 43,105 44,104 45,103 46,104 47,105 48,106 49,107 50,108 51,107 52,108 53,107 54,108 55,109 56,110 57,109 58,108 59,107 60,108 61,109 62,110 63,111 64,112 65,111 66,112 67,111 68,110 69,111 70,112 71,111 72,110 73,109 74,108 75,109 76,110 77,111 78,112 79,113 80,112 81,111 82,112 83,111 84,112 85,111 86,112 87,111 88,112 89,111 90,112 91,111 92,110 93,111 94,112 95,111 96,112 97,113 98,112 99,113 100,112 101,113 102,114 103,115 104,116 105,117 106,116 107,117 108,116 109,115 110,114 111,115 112,114 113,115 114,114 115,113 116,114 117,115 118,114 119,115 120,116 121,117 122,118 123,117 124,116 125,115 126,116 127,115 128,116 129,117 130,118 131,119 132,120 133,121 134,120 135,119 136,118 137,117 138,116 139,117 140,118 141,119 142,120 143,121 144,122 145,121 146,120 147,121 148,120 149,119 150,120 151,119 152,118 153,119 154,120 155,121 156,122 157,121 158,120 159,121 160,122 161,121 162,120 163,121 164,120 165,119 166,118 167,119 168,118 169,119 170,118 171,119 172,118 173,117 174,116 175,117 176,116 177,117 178,118 179,119 180,120 181,121 182,122 183,121 184,122 185,121 186,122 187,121 188,122 189,121 190,122 191,123 192,122 193,123 194,124 195,123 196,124 197,123 198,124 199,125 200,124 201,123 202,122 203,121 204,120 205,119 206,120 207,119 208,120 209,121 210,122 211,121 212,120 213,121 214,122 215,123 216,124 217,123 218,124 219,125 220,126 221,127 222,126 223,125 224,124 225,125 226,126 227,125 228,124 229,123 230,124 231,125 232,126 233,127 234,126 235,125 236,124 237,125 238,126 239,127 240,128 241,127 242,128 243,127 244,128 245,129 246,130 247,129 248,128 249,129 250,128 251,127 252,126 253,127 254,128 255,129 256,130 257,129 258,130 259,131 260,132 261,131 262,130 263,131 264,130 265,131 266,132 267,133 268,134 269,133 270,134 271,133 272,134 273,133 274,134 275,135 276,136 277,135 278,136 279,135 280,134 281,135 282,136 283,137 284,136 285,135 286,136 287,135 288,136 289,137 290,138 291,139 292,138 293,137 294,136 295,135 296,136 297,137 298,138 299,137 300,136 301,135 302,134 303,133 304,134 305,133 306,134 307,133 308,134 309,135 310,136 311,137 312,136 313,137 314,136 315,137 316,136 317,137 318,136 319,135 320,136 321,137 322,136 323,135 324,136 325,137 326,136 327,137 328,136 329,135 330,134 331,133 332,134 333,133 334,132 335,131 336,132 337,133 338,134 339,135 340,134 341,135 342,136 343,137 344,136 345,135 346,136 347,137 348,138 349,139 350,138 351,139 352,140 353,139 354,140 355,139 356,140 357,139 358,138 359,137 360,136 361,137 362,136 363,137 364,136 365,137 366,136 367,135 368,136 369,135 370,134 371,135 372,134 373,135 374,134 375,135 376,134 377,133 378,132 379,131 380,132 381,131 382,130 383,131 384,132 385,133 386,132 387,131 388,132 389,133 390,132 391,133 392,134 393,133 394,132 395,131 396,132 397,133 398,134 399,135 400,200 " style="fill:rgb(128,81,168);stroke:rgb(28,0,68)"></polygon><polygon points="0,200 0,100 1,101 2,102 3,101 4,102 5,103 6,102 7,101 8,102 9,103 10,102 11,101 12,102 13,101 14,100 15,101 16,100 17,99 18,98 19,97 20,98 21,99 22,98 23,99 24,98 25,99 26,100 27,99 28,100 29,101 30,102 31,101 32,100 33,101 34,102 35,101 36,102 37,103 38,102 39,101 40,100 41,99 42,98 43,99 44,98 45,99 46,98 47,97 48,98 49,97 50,98 51,99 52,98 53,97 54,96 55,97 56,96 57,97 58,98 59,97 60,98 61,99 62,98 63,97 64,98 65,97 66,98 67,99 68,98 69,97 70,98 71,99 72,98 73,97 74,98 75,99 76,98 77,97 78,96 79,97 80,96 81,97 82,96 83,97 84,96 85,97 86,98 87,99 88,100 89,99 90,98 91,99 92,98 93,99 94,100 95,101 96,102 97,103 98,104 99,105 100,104 101,103 102,102 103,101 104,100 105,101 106,100 107,101 108,100 109,99 110,98 111,97 112,96 113,95 114,94 115,95 116,94 117,93 118,94 119,93 120,92 121,93 122,92 123,93 124,94 125,93 126,92 127,93 128,94 129,93 130,92 131,91 132,92 133,91 134,90 135,91 136,92 137,93 138,92 139,91 140,92 141,91 142,90 143,91 144,92 145,91 146,92 147,91 148,90 149,91 150,90 151,89 152,88 153,89 154,88 155,87 156,88 157,89 158,88 159,87 160,88 161,89 162,90 163,91 164,92 165,91 166,92 167,91 168,92 169,91 170,90 171,91 172,92 173,93 174,94 175,95 176,94 177,93 178,94 179,95 180,94 181,95 182,94 183,93 184,92 185,91 186,92 187,93 188,92 189,91 190,92 191,93 192,94 193,95 194,96 195,95 196,96 197,97 198,98 199,99 200,98 201,99 202,100 203,101 204,102 205,103 206,104 207,103 208,102 209,101 210,102 211,101 212,100 213,99 214,98 215,97 216,96 217,95 218,94 219,95 220,96 221,97 222,98 223,99 224,100 225,101 226,102 227,101 228,102 229,103 230,104 231,105 232,104 233,103 234,104 235,103 236,104 237,105 238,104 239,105 240,104 241,105 242,106 243,105 244,106 245,107 246,106 247,107 248,106 249,105 250,106 251,105 252,104 253,103 254,102 255,101 256,102 257,103 258,102 259,101 260,102 261,103 262,102 263,103 264,104 265,103 266,104 267,105 268,104 269,105 270,106 271,105 272,104 273,103 274,102 275,103 276,104 277,103 278,104 279,105 280,104 281,105 282,104 283,105 284,106 285,105 286,104 287,103 288,104 289,103 290,104 291,103 292,104 293,105 294,104 295,103 296,104 297,105 298,106 299,107 300,108 301,109 302,108 303,107 304,106 305,107 306,106 307,105 308,104 309,103 310,102 311,103 312,102 313,101 314,102 315,101 316,102 317,103 318,104 319,103 320,102 321,103 322,102 323,101 324,102 325,103 326,102 327,101 328,102 329,101 330,100 331,101 332,102 333,103 334,102 335,103 336,102 337,103 338,104 339,103 340,104 341,103 342,102 343,103 344,102 345,103 346,102 347,103 348,102 349,103 350,104 351,103 352,104 353,105 354,104 355,103 356,102 357,101 358,102 359,103 360,104 361,103 362,102 363,101 364,100 365,99 366,98 367,97 368,98 369,97 370,96 371,97 372,98 373,97 374,98 375,99 376,98 377,97 378,98 379,99 380,100 381,101 382,102 383,101 384,102 385,103 386,102 387,101 388,102 389,101 390,102 391,101 392,102 393,103 394,104 395,105 396,104 397,105 398,104 399,105 400,200 " style="fill:rgb(245,61,13);stroke:rgb(145,0,0)"></polygon><polygon points="0,200 0,100 1,99 2,98 3,99 4,98 5,99 6,100 7,99 8,98 9,97 10,98 11,97 12,96 13,97 14,98 15,97 16,98 17,97 18,98 19,99 20,98 21,97 22,98 23,97 24,96 25,95 26,94 27,93 28,92 29,93 30,92 31,91 32,92 33,91 34,90 35,91 36,92 37,93 38,92 39,91 40,90 41,91 42,90 43,89 44,90 45,89 46,88 47,89 48,90 49,89 50,88 51,89 52,90 53,91 54,92 55,91 56,92 57,93 58,94 59,93 60,94 61,95 62,96 63,97 64,98 65,99 66,100 67,99 68,98 69,99 70,98 71,99 72,98 73,99 74,98 75,97 76,98 77,99 78,98 79,97 80,98 81,99 82,98 83,99 84,100 85,99 86,100 87,99 88,98 89,99 90,100 91,99 92,98 93,97 94,96 95,95 96,94 97,93 98,92 99,93 100,94 101,93 102,94 103,95 104,94 105,95 106,96 107,95 108,94 109,95 110,94 111,95 112,94 113,93 114,94 115,95 116,94 117,95 118,96 119,95 120,94 121,93 122,92 123,93 124,94 125,93 126,92 127,93 128,92 129,91 130,92 131,91 132,92 133,91 134,90 135,91 136,92 137,93 138,94 139,93 140,92 141,91 142,90 143,91 144,92 145,91 146,92 147,93 148,94 149,95 150,94 151,93 152,94 153,95 154,94 155,93 156,92 157,91 158,92 159,93 160,92 161,93 162,94 163,93 164,94 165,93 166,94 167,93 168,94 169,93 170,94 171,95 172,94 173,93 174,92 175,91 176,90 177,89 178,90 179,91 180,92 181,91 182,92 183,91 184,92 185,91 186,92 187,93 188,92 189,93 190,92 191,93 192,94 193,93 194,92 195,93 196,92 197,91 198,92 199,91 200,92 201,91 202,90 203,91 204,92 205,91 206,92 207,93 208,92 209,91 210,90 211,89 212,90 213,91 214,92 215,91 216,92 217,93 218,92 219,91 220,90 221,91 222,92 223,91 224,92 225,91 226,92 227,91 228,90 229,91 230,92 231,91 232,90 233,91 234,92 235,91 236,92 237,91 238,90 239,91 240,90 241,89 242,90 243,91 244,92 245,91 246,92 247,91 248,90 249,91 250,92 251,91 252,92 253,91 254,90 255,89 256,90 257,89 258,88 259,87 260,86 261,85 262,84 263,85 264,84 265,85 266,84 267,85 268,86 269,87 270,86 271,87 272,86 273,85 274,86 275,85 276,86 277,87 278,86 279,87 280,88 281,89 282,88 283,87 284,88 285,87 286,88 287,89 288,90 289,89 290,88 291,87 292,86 293,87 294,88 295,89 296,88 297,87 298,88 299,87 300,86 301,85 302,86 303,87 304,86 305,87 306,86 307,87 308,88 309,89 310,88 311,87 312,86 313,85 314,84 315,83 316,84 317,83 318,84 319,85 320,84 321,83 322,82 323,83 324,82 325,81 326,80 327,81 328,82 329,83 330,82 331,83 332,84 333,83 334,82 335,81 336,82 337,81 338,82 339,81 340,80 341,81 342,80 343,79 344,80 345,79 346,78 347,79 348,78 349,79 350,80 351,79 352,80 353,79 354,80 355,79 356,78 357,77 358,76 359,75 360,74 361,75 362,74 363,75 364,76 365,75 366,74 367,75 368,74 369,75 370,76 371,75 372,74 373,75 374,76 375,75 376,76 377,77 378,78 379,77 380,76 381,75 382,74 383,75 384,74 385,73 386,74 387,73 388,74 389,75 390,74 391,73 392,74 393,75 394,74 395,73 396,72 397,73 398,72 399,71 400,200 " style="fill:rgb(172,2,124);stroke:rgb(72,0,24)"></polygon><polygon points="0,200 0,100 1,99 2,98 3,99 4,100 5,99 6,98 7,99 8,100 9,99 10,98 11,97 12,96 13,97 14,96 15,97 16,96 17,97 18,96 19,95 20,94 21,93 22,92 23,91 24,90 25,89 26,88 27,89 28,90 29,91 30,92 31,91 32,92 33,91 34,90 35,91 36,92 37,93 38,92 39,93 40,94 41,95 42,94 43,93 44,94 45,95 46,96 47,95 48,94 49,95 50,94 51,95 52,94 53,95 54,96 55,97 56,96 57,95 58,94 59,95 60,96 61,95 62,94 63,93 64,92 65,91 66,92 67,91 68,92 69,93 70,92 71,93 72,92 73,93 74,94 75,93 76,94 77,93 78,94 79,95 80,94 81,95 82,96 83,97 84,98 85,99 86,98 87,97 88,98 89,99 90,100 91,99 92,100 93,99 94,98 95,97 96,98 97,99 98,100 99,101 100,102 101,103 102,102 103,101 104,100 105,99 106,100 107,101 108,102 109,103 110,104 111,103 112,102 113,101 114,102 115,101 116,102 117,103 118,102 119,101 120,102 121,101 122,102 123,101 124,100 125,101 126,102 127,101 128,102 129,101 130,100 131,99 132,100 133,99 134,98 135,97 136,96 137,97 138,96 139,95 140,96 141,97 142,98 143,97 144,96 145,95 146,94 147,93 148,92 149,91 150,90 151,89 152,90 153,91 154,90 155,89 156,90 157,91 158,92 159,93 160,92 161,91 162,90 163,89 164,88 165,87 166,86 167,87 168,88 169,89 170,90 171,91 172,90 173,89 174,88 175,87 176,86 177,87 178,88 179,87 180,86 181,85 182,84 183,83 184,84 185,85 186,84 187,85 188,86 189,85 190,84 191,85 192,84 193,83 194,82 195,83 196,82 197,81 198,82 199,83 200,82 201,81 202,82 203,81 204,80 205,81 206,82 207,81 208,82 209,83 210,82 211,83 212,82 213,81 214,80 215,81 216,82 217,81 218,82 219,83 220,84 221,83 222,84 223,83 224,84 225,85 226,84 227,83 228,82 229,81 230,82 231,83 232,84 233,85 234,86 235,87 236,86 237,85 238,86 239,87 240,88 241,89 242,90 243,89 244,88 245,87 246,86 247,85 248,84 249,85 250,84 251,85 252,86 253,85 254,84 255,83 256,84 257,83 258,84 259,85 260,84 261,85 262,86 263,87 264,86 265,85 266,84 267,83 268,84 269,83 270,82 271,83 272,84 273,83 274,84 275,83 276,82 277,83 278,82 279,83 280,82 281,83 282,82 283,81 284,82 285,81 286,82 287,83 288,82 289,83 290,84 291,85 292,84 293,83 294,84 295,83 296,84 297,83 298,84 299,85 300,84 301,83 302,82 303,83 304,82 305,81 306,80 307,79 308,78 309,77 310,76 311,75 312,74 313,75 314,74 315,73 316,72 317,71 318,72 319,71 320,72 321,71 322,72 323,73 324,72 325,73 326,72 327,71 328,72 329,71 330,70 331,69 332,70 333,71 334,70 335,69 336,68 337,69 338,68 339,69 340,70 341,69 342,70 343,69 344,68 345,69 346,70 347,71 348,72 349,71 350,72 351,73 352,74 353,75 354,76 355,77 356,76 357,77 358,78 359,77 360,78 361,79 362,78 363,79 364,78 365,79 366,78 367,77 368,78 369,77 370,78 371,77 372,76 373,75 374,76 375,77 376,76 377,75 378,74 379,73 380,74 381,73 382,72 383,73 384,72 385,71 386,70 387,71 388,70 389,69 390,70 391,71 392,72 393,73 394,72 395,71 396,70 397,69 398,68 399,67 400,200 " style="fill:rgb(37,81,250);stroke:rgb(0,0,150)"></polygon><polygon points="0,200 0,100 1,99 2,100 3,101 4,100 5,101 6,100 7,99 8,100 9,99 10,100 11,101 12,102 13,101 14,100 15,101 16,102 17,103 18,104 19,105 20,104 21,103 22,102 23,103 24,102 25,103 26,102 27,101 28,102 29,101 30,102 31,101 32,102 33,101 34,102 35,103 36,104 37,105 38,106 39,107 40,108 41,107 42,108 43,109 44,108 45,107 46,106 47,105 48,106 49,105 50,106 51,107 52,108 53,107 54,108 55,107 56,106 57,105 58,104 59,105 60,104 61,105 62,104 63,103 64,102 65,101 66,102 67,101 68,100 69,101 70,100 71,101 72,100 73,99 74,98 75,99 76,98 77,99 78,100 79,99 80,100 81,101 82,102 83,101 84,100 85,99 86,100 87,99 88,100 89,99 90,98 91,97 92,96 93,97 94,96 95,97 96,98 97,99 98,98 99,97 100,96 101,97 102,98 103,99 104,100 105,101 106,100 107,101 108,102 109,103 110,102 111,103 112,104 113,103 114,102 115,101 116,100 117,101 118,102 119,101 120,100 121,99 122,100 123,101 124,102 125,103 126,104 127,103 128,104 129,103 130,104 131,103 132,102 133,101 134,100 135,99 136,98 137,97 138,96 139,97 140,98 141,99 142,98 143,97 144,96 145,95 146,96 147,97 148,98 149,99 150,100 151,101 152,102 153,103 154,102 155,103 156,102 157,101 158,100 159,101 160,102 161,103 162,102 163,103 164,104 165,105 166,104 167,103 168,102 169,103 170,104 171,103 172,104 173,105 174,106 175,105 176,106 177,105 178,104 179,105 180,106 181,105 182,106 183,105 184,104 185,103 186,104 187,105 188,104 189,103 190,104 191,105 192,106 193,107 194,108 195,109 196,110 197,111 198,110 199,109 200,108 201,107 202,106 203,105 204,106 205,107 206,108 207,107 208,108 209,107 210,108 211,107 212,108 213,109 214,108 215,109 216,108 217,107 218,108 219,107 220,108 221,109 222,108 223,109 224,110 225,111 226,110 227,109 228,110 229,109 230,110 231,109 232,110 233,109 234,110 235,111 236,110 237,111 238,110 239,111 240,112 241,111 242,112 243,113 244,114 245,113 246,114 247,113 248,114 249,113 250,112 251,113 252,112 253,113 254,114 255,113 256,114 257,115 258,116 259,117 260,116 261,115 262,116 263,115 264,114 265,115 266,114 267,115 268,114 269,115 270,114 271,113 272,114 273,115 274,114 275,115 276,116 277,117 278,116 279,117 280,116 281,115 282,116 283,115 284,116 285,115 286,114 287,115 288,116 289,117 290,116 291,117 292,116 293,115 294,116 295,117 296,116 297,115 298,116 299,115 300,116 301,117 302,116 303,117 304,118 305,119 306,118 307,119 308,120 309,119 310,120 311,121 312,120 313,121 314,122 315,121 316,120 317,119 318,120 319,119 320,118 321,117 322,116 323,117 324,116 325,117 326,116 327,115 328,114 329,113 330,114 331,115 332,114 333,115 334,114 335,115 336,114 337,115 338,114 339,113 340,114 341,113 342,114 343,113 344,112 345,111 346,110 347,109 348,108 349,107 350,106 351,107 352,106 353,107 354,106 355,105 356,106 357,105 358,106 359,105 360,104 361,103 362,104 363,105 364,106 365,107 366,106 367,105 368,106 369,105 370,106 371,105 372,106 373,107 374,108 375,107 376,106 377,107 378,108 379,107 380,106 381,105 382,106 383,105 384,106 385,105 386,104 387,105 388,104 389,105 390,104 391,103 392,102 393,101 394,102 395,103 396,102 397,101 398,100 399,99 400,200 " style="fill:rgb(107,131,76);stroke:rgb(7,31,0)"></polygon></svg>